<?xml version="1.0" encoding="utf-8"?>
<!-- Generator: Adobe Illustrator 26.3.1, SVG Export Plug-In . SVG Version: 6.00 Build 0)  -->
<svg version="1.1" id="sketchvalley" xmlns="http://www.w3.org/2000/svg" xmlns:xlink="http://www.w3.org/1999/xlink" x="0px"
	 y="0px" viewBox="0 0 309 305" style="enable-background:new 0 0 309 305;" xml:space="preserve">
<style type="text/css">
	.st0{fill:#372E3E;}
	.st1{opacity:0.67;}
	.st2{fill:#E84828;}
	.st3{fill:#0FB9D3;}
	.st4{fill:#4B4351;}
	.st5{fill:#29C1D8;}
	.st6{fill:#F5B0A3;}
	.st7{fill:#FFFFFF;}
	.st8{fill:#27C0D7;}
	.st9{fill:#F1E6E0;}
	.st10{fill:#F09060;}
	.st11{fill:#EE7860;}
	.st12{fill:#EDDC00;}
	.st13{fill:#303145;}
	.st14{fill:#EA5A3D;}
	.st15{fill:#3A3B4E;}
	.st16{opacity:0.25;}
	.st17{fill:#F44C44;}
</style>
<g>
	<g>
		<g>
			<polygon class="st0" points="213.1,284.9 252.9,284.9 231.8,256.8 			"/>
		</g>
		<g>
			<g>
				<path d="M147.9,261.7c-0.9,0-1.6-0.7-1.6-1.6v-67.2c0-0.9,0.7-1.6,1.6-1.6c0.9,0,1.6,0.7,1.6,1.6v67.2
					C149.6,261,148.8,261.7,147.9,261.7z"/>
			</g>
			<g>
				<path d="M137.6,204.4c-0.7,0-1.3-0.4-1.6-1.1c-0.3-0.9,0.2-1.8,1.1-2.1l10.3-3.3c0.3-0.1,0.6-0.1,0.9,0l10.1,2.8
					c0.9,0.2,1.4,1.1,1.1,2c-0.2,0.9-1.1,1.4-2,1.1l-9.6-2.7l-9.8,3.2C137.9,204.4,137.7,204.4,137.6,204.4z"/>
			</g>
			<g>
				<path d="M135.2,215.8c-0.7,0-1.3-0.4-1.6-1.2c-0.3-0.9,0.2-1.8,1.1-2l12.6-3.9c0.3-0.1,0.6-0.1,0.9,0l12.3,3.2
					c0.9,0.2,1.4,1.1,1.2,2c-0.2,0.9-1.1,1.4-2,1.2l-11.9-3.1l-12.2,3.8C135.5,215.8,135.4,215.8,135.2,215.8z"/>
			</g>
			<g>
				<path d="M133,227.8c-0.7,0-1.4-0.5-1.6-1.2c-0.3-0.9,0.2-1.8,1.1-2l15-4.6c0.3-0.1,0.6-0.1,0.9,0l14.8,3.9
					c0.9,0.2,1.4,1.1,1.2,2c-0.2,0.9-1.1,1.4-2,1.2l-14.4-3.8l-14.6,4.4C133.3,227.7,133.2,227.8,133,227.8z"/>
			</g>
		</g>
		<g class="st1">
			<path class="st2" d="M160.5,273.5c3.3-1.3,5.6-4.6,5.6-8.4c0-3.8-2.3-7-5.6-8.3c1-1.6,1.6-3.6,1.6-5.7c0-5.8-4.6-10.5-10.4-10.6
				c0.1-0.6,0.2-1.3,0.2-1.9c0-5-4-9-9-9c-2,0-3.8,0.6-5.3,1.7c-1.2-3.6-4.6-6.2-8.6-6.2c-3.2,0-6,1.7-7.6,4.2
				c-1.8-1.7-4.3-2.7-7-2.7c-5.7,0-10.4,4.6-10.4,10.4c0,0.3,0,0.5,0,0.8c-0.6-0.1-1.2-0.2-1.8-0.2c-5,0-9,4-9,9c0,1,0.2,2,0.5,2.9
				c-0.4-0.1-0.8-0.1-1.2-0.1c-5.4,0-9.8,4.4-9.8,9.8c0,3.4,1.7,6.3,4.3,8.1c-3.9,2.4-6.6,6.8-6.6,11.7c0,2.2,0.5,4.2,1.4,6h84.9
				c0-0.2,0-0.4,0-0.6C166.7,279.7,164.2,275.7,160.5,273.5z"/>
		</g>
		<g>
			<g>
				<path class="st3" d="M108.2,215.8c8.3-0.6,15.3,11.7,17.6,21c2.3,9.3,0.7,23.2-2.9,30.2c-3.6,7-9.5,17.8-9.5,17.8H99.9
					c0,0-11.1-15.1-10.6-34.5S96.5,216.7,108.2,215.8z"/>
			</g>
			<g>
				<path d="M107.3,284.4C107.3,284.4,107.3,284.4,107.3,284.4c-0.1,0-0.2-0.1-0.2-0.2c0-0.6,0.4-61.6,0-67.9c0-0.1,0.1-0.2,0.2-0.2
					c0.1,0,0.2,0.1,0.2,0.2c0.4,6.4,0,67.4,0,68C107.6,284.3,107.5,284.4,107.3,284.4z"/>
			</g>
			<g>
				<path d="M107.5,245.5c-1.6,0-14.9-8.1-16.4-9.1c-0.1-0.1-0.1-0.2-0.1-0.3c0.1-0.1,0.2-0.1,0.3-0.1c5.9,3.6,15,9,16.1,9
					c1.1,0,10.7-6.5,16.9-10.9c0.1-0.1,0.3,0,0.3,0.1c0.1,0.1,0,0.3-0.1,0.3C123,235.6,109.1,245.5,107.5,245.5z"/>
			</g>
			<g>
				<path d="M107.3,262.4c-1.7,0-15.6-7.4-18.1-9.7c-0.1-0.1-0.1-0.2,0-0.3c0.1-0.1,0.2-0.1,0.3,0c2.6,2.4,16.3,9.5,17.8,9.5
					c1.5,0,17.1-6.6,18.7-7.3c0.1-0.1,0.3,0,0.3,0.1c0.1,0.1,0,0.3-0.1,0.3C125.1,255.6,109,262.4,107.3,262.4z"/>
			</g>
			<g>
				<path d="M107.5,276.4c-1.5,0-14.4-7.2-15.6-8.3c-0.1-0.1-0.1-0.2,0-0.3c0.1-0.1,0.2-0.1,0.3,0c1.8,1.7,14.4,8.2,15.3,8.2
					c1.1,0,9.3-2.9,12.4-4c0.1,0,0.3,0,0.3,0.1c0,0.1,0,0.3-0.1,0.3C119.6,272.5,108.8,276.4,107.5,276.4z"/>
			</g>
		</g>
		<g>
			<polygon class="st4" points="125.8,284.9 191.1,284.9 156.5,238.9 			"/>
		</g>
		<g>
			<g>
				<path class="st5" d="M174.9,212.7c3.6-0.1,5.3,6.3,4.8,11c-0.5,4.7-2.3,16.6-0.6,19.3c1.7,2.7,8.7,8.1,8.4,17.2
					c-0.2,9.2-2.2,15.2-5.4,18c-3.3,2.8-6.5,1.6-7.6,3.9c-1.1,2.3-0.2,2.9-0.2,2.9h-4.7c0,0,1-3.6-1.4-4.3c-2.4-0.7-7.2-0.4-9.2-4.7
					c-1.9-4.3-1.4-14.9,0.5-22.4c1.9-7.5,6.9-7,7.2-15.9C167.1,228.6,166.5,212.8,174.9,212.7z"/>
			</g>
			<g>
				<g>
					<path d="M172.7,269.6C172.7,269.6,172.7,269.6,172.7,269.6c-0.1,0-0.2-0.1-0.2-0.2c0.1-2-0.1-18.1-0.2-19.9
						c0-0.1,0.1-0.2,0.2-0.2c0,0,0,0,0,0c0.1,0,0.2,0.1,0.2,0.2c0.1,1.8,0.3,17.9,0.2,19.9C172.9,269.6,172.8,269.6,172.7,269.6z"/>
				</g>
				<g>
					<path d="M172.8,263.2c-0.1,0-0.1,0-0.2-0.1c-0.1-0.1-0.1-0.2,0-0.3c0.6-0.5,6.2-5.8,6.8-6.5c0.1-0.1,0.2-0.1,0.3,0
						c0.1,0.1,0.1,0.2,0,0.3c-0.7,0.7-6.2,6-6.9,6.6C172.9,263.2,172.8,263.2,172.8,263.2z"/>
				</g>
			</g>
		</g>
		<g>
			<g>
				<path class="st2" d="M225.5,285.6h-44.9c-0.3,0-0.6-0.2-0.7-0.5c0-0.1-1-3.2-1.6-7.4c-0.5-3.9-0.7-9.6,1.2-14.3
					c3.5-8.6,10.1-14.6,13.5-16.3v0c1.1-0.6,2.1-1.2,3.2-1.8c2.1-1.3,4-2.5,5.7-2.7c2.6-0.3,6,1.8,8,3.8c0.4,0.4,0.8,0.9,1.2,1.4
					c1.6,1.9,3.6,4.2,6.7,5.4c4.8,1.9,7.6,10.2,8.4,15.3c0.8,5.6,0.2,15.9,0.1,16.4C226.1,285.3,225.8,285.6,225.5,285.6z
					 M181.1,284.2h43.7c0.1-2.4,0.5-10.7-0.2-15.4c-0.8-5.9-3.9-12.8-7.5-14.2c-3.5-1.4-5.6-3.8-7.3-5.8c-0.4-0.5-0.8-0.9-1.1-1.3
					c-1.7-1.9-4.7-3.6-6.8-3.4c-1.4,0.2-3.2,1.3-5.1,2.5c-1,0.6-2.1,1.3-3.2,1.9l0,0c-2.1,1.1-9,6.4-12.8,15.6
					C177.7,271.5,180.4,281.9,181.1,284.2z"/>
			</g>
			<g>
				<path d="M201.9,267c-0.1,0-0.1,0-0.2-0.1c-0.1-0.1-0.1-0.2,0-0.3c0.1-0.1,6.7-7.7,7.8-11.3c0-0.1,0.2-0.2,0.3-0.2
					c0.1,0,0.2,0.2,0.2,0.3c-1.1,3.6-7.6,11.1-7.9,11.4C202.1,267,202,267,201.9,267z"/>
			</g>
			<g>
				<path d="M204.8,274.1c-0.1,0-0.1,0-0.2-0.1c-0.1-0.1-0.1-0.2,0-0.3c2.7-2.6,8.9-10.2,9.4-11.9c0-0.1,0.2-0.2,0.3-0.2
					c0.1,0,0.2,0.2,0.2,0.3c-0.5,1.9-7,9.7-9.5,12.1C205,274.1,204.9,274.1,204.8,274.1z"/>
			</g>
			<g>
				<path d="M201.9,267c-0.1,0-0.1,0-0.2-0.1c-0.3-0.3-6.8-7.8-7.9-11.4c0-0.1,0-0.3,0.2-0.3c0.1,0,0.3,0,0.3,0.2
					c1.1,3.5,7.7,11.2,7.8,11.3c0.1,0.1,0.1,0.2,0,0.3C202,267,202,267,201.9,267z"/>
			</g>
			<g>
				<path d="M199,274.1c-0.1,0-0.1,0-0.2-0.1c-2.5-2.4-9-10.2-9.5-12.1c0-0.1,0-0.3,0.2-0.3c0.1,0,0.3,0,0.3,0.2
					c0.5,1.7,6.7,9.3,9.4,11.9c0.1,0.1,0.1,0.2,0,0.3C199.1,274.1,199.1,274.1,199,274.1z"/>
			</g>
		</g>
		<g>
			<g>
				<path class="st6" d="M79.2,284.9c0,0,0.4-4.5-0.4-5.3c-0.8-0.8-15.9-1.5-19.5-7.8c-3.5-6.3-2.7-14,1.5-19.5
					c4.2-5.4,7.8-9,10.9-14.4c3.1-5.4,11.2-5.7,15.4-3.3c4.2,2.5,5.3,7.9,8.7,11.2c3.4,3.3,5.6,10.4,4.1,18.7s-6.3,9.7-9.3,11.6
					c-3,1.9-7.1,1.6-7.2,3.8c-0.1,2.2,0,5,0,5H79.2z"/>
			</g>
			<g>
				<g>
					<path d="M79,250.1c0,0-0.1,0-0.1,0l-5.6-3.6c-0.1-0.1-0.1-0.2-0.1-0.3c0.1-0.1,0.2-0.1,0.3-0.1l5.6,3.6
						c0.1,0.1,0.1,0.2,0.1,0.3C79.1,250,79.1,250.1,79,250.1z"/>
				</g>
				<g>
					<path d="M85.1,249.1c-0.1,0-0.1,0-0.2-0.1c-0.1-0.1-0.1-0.2,0-0.3l4.2-3.9c0.1-0.1,0.2-0.1,0.3,0c0.1,0.1,0.1,0.2,0,0.3
						l-4.2,3.9C85.2,249.1,85.2,249.1,85.1,249.1z"/>
				</g>
				<g>
					<path d="M84.4,260.7c-0.1,0-0.1,0-0.2-0.1c-0.1-0.1-0.1-0.2,0-0.3l9.3-9.6c0.1-0.1,0.2-0.1,0.3,0c0.1,0.1,0.1,0.2,0,0.3
						l-9.3,9.6C84.5,260.7,84.5,260.7,84.4,260.7z"/>
				</g>
				<g>
					<path d="M84.9,272.1c-0.1,0-0.1,0-0.2-0.1c-0.1-0.1-0.1-0.2,0-0.3l10.1-9.4c0.1-0.1,0.2-0.1,0.3,0c0.1,0.1,0.1,0.2,0,0.3
						l-10.1,9.4C85,272.1,85,272.1,84.9,272.1z"/>
				</g>
				<g>
					<path d="M77.1,260.1c0,0-0.1,0-0.1,0l-8.7-5.3c-0.1-0.1-0.1-0.2-0.1-0.3c0.1-0.1,0.2-0.1,0.3-0.1l8.7,5.3
						c0.1,0.1,0.1,0.2,0.1,0.3C77.3,260,77.2,260.1,77.1,260.1z"/>
				</g>
				<g>
					<path d="M75.6,270.9c0,0-0.1,0-0.1,0l-12.4-6.2c-0.1-0.1-0.2-0.2-0.1-0.3c0.1-0.1,0.2-0.2,0.3-0.1l12.4,6.2
						c0.1,0.1,0.2,0.2,0.1,0.3C75.8,270.9,75.7,270.9,75.6,270.9z"/>
				</g>
			</g>
		</g>
		<g>
			<g>
				<path class="st7" d="M133.7,285.6h-4.2c-0.4,0-0.7-0.3-0.7-0.7c0-1.6-0.4-6-2.4-7l-0.1,0c-6.5-3.4-14-9.3-13-18.2
					c0.4-3.4,1.3-8,3.7-10.5c0.7-0.8,1.2-1.5,1.7-2.2c0.9-1.4,1.8-2.6,3.9-3.6c0.8-0.4,1.7-0.9,2.5-1.5c2-1.4,4.2-2.8,6.6-1.7
					c3.2,1.4,7.7,5.8,8.8,9.6c0.2,0.6,0.4,1.4,0.7,2.2c1.2,3.7,2.8,8.7,2.5,13c-0.3,5.9-5.5,10.1-6.5,10.9c-1.6,1.2-3,7-2.8,9
					c0,0.2,0,0.4-0.2,0.6S133.9,285.6,133.7,285.6z M130.2,284.9L130.2,284.9L130.2,284.9z M130.2,284.2h2.8c0-2.7,1.4-8,3.3-9.5
					c0.9-0.7,5.6-4.6,5.9-9.9c0.2-4-1.3-8.9-2.5-12.5c-0.3-0.8-0.5-1.5-0.7-2.2c-1-3.3-5.2-7.4-8-8.7c-1.8-0.8-3.4,0.3-5.3,1.6
					c-0.9,0.6-1.7,1.2-2.7,1.6c-1.7,0.8-2.4,1.8-3.3,3.1c-0.5,0.7-1.1,1.5-1.9,2.4c-2.2,2.3-3,7.1-3.3,9.7
					c-0.7,6.4,3.4,12.1,12.3,16.8l0.1,0C127.4,276.8,130,278.3,130.2,284.2z M114,259.8L114,259.8L114,259.8z"/>
			</g>
			<g>
				<path d="M127.4,255.6c-0.1,0-0.1,0-0.1,0c-2.3-1.8-3.9-3.4-5.2-5c-0.1-0.1-0.1-0.2,0-0.3c0.1-0.1,0.2-0.1,0.3,0
					c1.3,1.6,2.9,3.2,5.2,4.9c0.1,0.1,0.1,0.2,0,0.3C127.6,255.6,127.5,255.6,127.4,255.6z"/>
			</g>
			<g>
				<path d="M127.4,265.6c-0.1,0-0.1,0-0.1,0c-3.2-2.5-5.6-4.8-7.5-7.2c-0.1-0.1-0.1-0.2,0-0.3c0.1-0.1,0.2-0.1,0.3,0
					c1.8,2.3,4.2,4.6,7.4,7.1c0.1,0.1,0.1,0.2,0,0.3C127.5,265.6,127.4,265.6,127.4,265.6z"/>
			</g>
			<g>
				<path d="M131.2,255.6c-0.1,0-0.1,0-0.2-0.1c-0.1-0.1-0.1-0.2,0-0.3c2.2-1.7,3.9-3.3,5.2-4.9c0.1-0.1,0.2-0.1,0.3,0
					c0.1,0.1,0.1,0.2,0,0.3c-1.3,1.7-3,3.3-5.2,5C131.3,255.6,131.2,255.6,131.2,255.6z"/>
			</g>
			<g>
				<path d="M131.3,265.6c-0.1,0-0.1,0-0.2-0.1c-0.1-0.1-0.1-0.2,0-0.3c3.2-2.5,5.6-4.8,7.4-7.1c0.1-0.1,0.2-0.1,0.3,0
					c0.1,0.1,0.1,0.2,0,0.3c-1.9,2.4-4.2,4.6-7.5,7.2C131.4,265.6,131.3,265.6,131.3,265.6z"/>
			</g>
		</g>
		<g>
			<path class="st3" d="M273.2,285.6h-47.7c-0.3,0-0.5-0.1-0.6-0.4c-0.1-0.2-0.1-0.5,0-0.7l22.4-33.7c0.1-0.2,0.3-0.3,0.6-0.3
				c0.2,0,0.4,0.1,0.6,0.3l25.3,33.7c0.2,0.2,0.2,0.5,0.1,0.7C273.7,285.5,273.5,285.6,273.2,285.6z M226.8,284.2h45l-23.9-31.7
				L226.8,284.2z"/>
		</g>
		<g>
			<rect x="49.2" y="272" class="st8" width="30" height="12.9"/>
		</g>
		<g>
			<rect x="31.3" y="274.9" class="st9" width="23.4" height="10"/>
		</g>
	</g>
	<g>
		<g>
			<g>
				<path class="st10" d="M142,168c12.6,7,30.8,13,6.5,26.3c-18,9.8-55.1,22.7-59.4,25.4c-4.3,2.7-5.7,5.5-5.7,5.5
					s-11.4-1.7-14.9-6.4c-3.4-4.7,3.5-20.6,3.5-20.6L142,168z"/>
			</g>
			<g>
				<path d="M59,254.5c-2.4,0.9-4.1,0.5-4.5-1c-0.3-1.5,3.8-2.4,3.8-2.4L59,254.5z M57.9,243.7c-1.1,0.3-4.7,0.1-4.5,2.3
					c0.2,2.2,4.8,1.2,4.8,1.2L57.9,243.7z M58.8,237c-1-0.2-5-0.6-5.2,1.7c-0.2,2.3,4.9,2.1,4.9,2.1L58.8,237z M59.6,229.5
					c-2.7-0.1-3.9,0.5-4,2.2c-0.1,1.7,3.7,2.1,3.7,2.1L59.6,229.5z"/>
			</g>
			<g>
				<path class="st2" d="M60.3,203.4c0.5-2.6,5-4.2,7.2-4.7c2.2-0.6,4.4-0.5,4.4-0.5s1.7,4.3-0.3,9.1c-2,4.8-2.4,7-0.6,9
					s3.5,2.1,7.3,4.2c3.8,2.1,5.1,4.7,5.1,4.7s-6.2,9.5-10,14.3c-3.8,4.8-4.5,5.8-7.1,10.8c-1.5,2.9-2.8,5.7-4.9,5.8
					c-3.1,0.3-4.1-4.9-3.9-11.4c0.2-6.6,3.2-20,3.2-25.5C60.6,213.6,59.9,206,60.3,203.4z"/>
			</g>
			<g>
				<path class="st11" d="M60.3,203.4c-0.5,2.6,0.3,10.2,0.2,15.7c0,5.5-2.9,18.9-3.2,25.5c-0.2,6.6,0.8,11.7,3.9,11.4
					c0.4,0,0.8-0.2,1.2-0.4c-3.1-3.2-3-12.4-1.8-17.4c1.2-5.1,2.1-9.7,2.9-13.5c0.8-3.7,0.1-10.9-0.3-14.8c-0.3-3.5,0.1-7.6,1-10.1
					C62.4,200.6,60.6,201.8,60.3,203.4z"/>
			</g>
			<g>
				<path class="st12" d="M81.4,228.2c-0.1,0-0.1,0-0.2-0.1c-1.7-1.8-7.4-4.7-10.4-5c-0.1,0-0.2-0.1-0.2-0.3c0-0.1,0.1-0.2,0.3-0.2
					c3.1,0.3,8.8,3.2,10.7,5.1c0.1,0.1,0.1,0.2,0,0.3C81.5,228.2,81.4,228.2,81.4,228.2z"/>
			</g>
			<g>
				<path class="st12" d="M77.8,233.2c-0.1,0-0.1,0-0.2-0.1c-0.8-0.8-5-3-7.8-3.3c-0.1,0-0.2-0.1-0.2-0.3c0-0.1,0.1-0.2,0.3-0.2
					c2.9,0.3,7.2,2.6,8.1,3.4c0.1,0.1,0.1,0.2,0,0.3C78,233.2,77.9,233.2,77.8,233.2z"/>
			</g>
			<g>
				<path class="st12" d="M73.8,238.8c-0.1,0-0.1,0-0.2-0.1c-0.6-0.7-3.3-1.8-5.1-2.2c-0.1,0-0.2-0.2-0.2-0.3c0-0.1,0.2-0.2,0.3-0.2
					c1.7,0.4,4.6,1.5,5.3,2.3c0.1,0.1,0.1,0.2,0,0.3C73.9,238.7,73.8,238.8,73.8,238.8z"/>
			</g>
			<g>
				<path d="M61.5,256c-0.1,0-0.1,0-0.1,0c-1.9-1.5-2.6-5.5-2.8-8.5c-0.3-4.2,0.2-8.3,1.6-13.9c1.5-5.9,2.4-10.4,1.8-18.5
					c-0.7-10.1,0.2-13.2,1.1-14.7c0.1-0.1,0.2-0.2,0.3-0.1c0.1,0.1,0.2,0.2,0.1,0.3c-1.2,2.3-1.6,6.9-1,14.5
					c0.6,8.2-0.3,12.7-1.8,18.7c-1.4,5.6-1.9,9.6-1.6,13.8c0.3,4.2,1.2,7.1,2.6,8.2c0.1,0.1,0.1,0.2,0,0.3
					C61.6,256,61.6,256,61.5,256z"/>
			</g>
		</g>
		<g>
			<path class="st13" d="M156.3,129.2c-1.9,3.3-3,8.9-4.9,12.1c-1.9,3.2-19.5,31.1-19.5,31.1s5.3,5.5,11.7,8.7
				c6.5,3.3,14.6,6.2,14.6,6.2s5.7-6.7,11.2-15.4c5.6-8.7,12.8-23.1,12.8-23.1L156.3,129.2z"/>
		</g>
		<g>
			<g>
				<path class="st10" d="M205.5,79c1.7-4.4,2.5-7.1,3-9.1c0.5-2,0.4-4.1,2.3-4.1c1.9,0,3,1.3,3.3,3c0.3,1.7,0,4.1,0,4.1
					s1.1-1.9,2.9-2.6c1.8-0.7,3.6,0.6,3.6,0.6s1.2-1.2,4.2-0.2c3,1,2.7,3.8,2.7,3.8s2.9,0.7,2,6.1c-0.9,5.4-4.2,9.3-8.7,14.1
					c-4.5,4.7-8.9,8.6-12.4,12.8c-3.5,4.2-10.7,11.4-14.9,12.8c-4.2,1.3-7.7,0.1-7.7,0.1s4.4-11,9-20.1L205.5,79z"/>
			</g>
			<g>
				<path class="st14" d="M209.4,71.6c-0.4,0-0.9-0.1-1.2-0.2c-0.1-0.1-0.2-0.2-0.1-0.3c0.1-0.1,0.2-0.2,0.3-0.1
					c0.7,0.3,1.7,0.3,2.6-0.4c0.7-0.6,1-2.2,0.8-4.4c0-0.1,0.1-0.2,0.2-0.3c0.1,0,0.2,0.1,0.3,0.2c0.1,1.1,0.3,3.8-1,4.8
					C210.7,71.4,210,71.6,209.4,71.6z"/>
			</g>
			<g>
				<path class="st14" d="M217.9,80.2C217.9,80.2,217.9,80.2,217.9,80.2c-0.1,0-2.9-0.1-4.2-1.8c-1.3-1.7-0.8-4,0.1-5.6
					c0.1-0.1,0.2-0.2,0.3-0.1c0.1,0.1,0.2,0.2,0.1,0.3c-0.8,1.4-1.3,3.5-0.1,5.1c1.2,1.5,3.8,1.6,3.9,1.6c0.1,0,0.2,0.1,0.2,0.2
					C218.1,80.1,218,80.2,217.9,80.2z"/>
			</g>
			<g>
				<path class="st14" d="M219.9,81.6c0,0-0.1,0-0.1,0c-2.1-1.1-2.9-2.7-2.7-5.2c0.2-2.4,1.4-4.4,3.1-5.7c0.1-0.1,0.3-0.1,0.3,0.1
					c0.1,0.1,0.1,0.3-0.1,0.3c-0.8,0.6-2.6,2.2-2.9,5.4c-0.2,2.4,0.5,3.7,2.4,4.7c0.1,0.1,0.2,0.2,0.1,0.3
					C220.1,81.6,220,81.6,219.9,81.6z"/>
			</g>
			<g>
				<path class="st14" d="M222.8,85.1c-1.1,0-2-0.5-2.5-1.3c-1.1-1.8-0.5-5.6,1.3-7.7c1.8-2.1,4.1-2.4,5.8-2c0.1,0,0.2,0.2,0.2,0.3
					c0,0.1-0.2,0.2-0.3,0.2c-1.5-0.4-3.6-0.1-5.3,1.8c-1.8,2.1-2.2,5.6-1.3,7.1c0.4,0.7,1.3,1.1,2.3,1.1c1-0.1,1.9-0.6,2.2-1.4
					c0.9-1.9,0.6-4.4,0.6-4.5c0-0.1,0.1-0.2,0.2-0.3c0.1,0,0.2,0.1,0.3,0.2c0,0.1,0.3,2.7-0.6,4.7c-0.4,1-1.5,1.6-2.6,1.7
					C222.9,85.1,222.9,85.1,222.8,85.1z"/>
			</g>
			<g>
				<path class="st14" d="M227.1,81.6c-0.5,0-0.9-0.1-1.1-0.1c-0.1,0-0.2-0.1-0.2-0.3c0-0.1,0.1-0.2,0.3-0.2
					c0.4,0.1,1.5,0.2,2.3-0.1c0.1,0,0.3,0,0.3,0.1c0,0.1,0,0.3-0.1,0.3C228,81.5,227.6,81.6,227.1,81.6z"/>
			</g>
			<g>
				<path class="st14" d="M221.6,84.8c-0.1,0-0.1,0-0.2-0.1c-0.1-0.1-0.1-0.2,0-0.3c0,0,0.7-0.7,0.9-2c0.2-1.3-0.4-3-1.8-3.4
					c-0.1,0-0.2-0.2-0.2-0.3c0-0.1,0.2-0.2,0.3-0.2c1.6,0.5,2.3,2.4,2.1,3.9c-0.2,1.5-1,2.3-1,2.3C221.7,84.7,221.6,84.8,221.6,84.8
					z"/>
			</g>
			<g>
				<path class="st14" d="M218.6,80.5c-0.1,0-0.1,0-0.2-0.1c-0.1-0.1-0.1-0.2,0-0.3c0,0,1-0.8,1.2-2.5c0.3-1.7-0.7-3.2-1.7-3.6
					c-0.1,0-0.2-0.2-0.1-0.3c0-0.1,0.2-0.2,0.3-0.1c1.2,0.4,2.4,2.1,2.1,4.1c-0.3,1.9-1.4,2.8-1.4,2.8
					C218.7,80.5,218.7,80.5,218.6,80.5z"/>
			</g>
			<g>
				<path class="st14" d="M215.8,79.7c0,0-0.1,0-0.1,0c-0.1-0.1-0.1-0.2-0.1-0.3c0,0,0.7-1.3,0.7-2.4c0-1.1-1.1-2.3-2.8-2.5
					c-0.1,0-0.2-0.1-0.2-0.3c0-0.1,0.1-0.2,0.3-0.2c2,0.2,3.2,1.7,3.2,2.9c0,1.3-0.7,2.6-0.8,2.7C215.9,79.7,215.9,79.7,215.8,79.7z
					"/>
			</g>
			<g>
				<path class="st14" d="M214.4,88.8c-0.1,0-0.2-0.1-0.2-0.2c0-0.1,0-0.3,0.2-0.3c0,0,0.7-0.2,1.8-2.1c1.1-2,1-5,0.2-6.2
					c-0.1-0.1,0-0.3,0.1-0.3c0.1-0.1,0.3,0,0.3,0.1c1,1.4,0.9,4.7-0.2,6.7C215.3,88.5,214.5,88.7,214.4,88.8
					C214.4,88.8,214.4,88.8,214.4,88.8z"/>
			</g>
		</g>
		<g>
			<path class="st10" d="M257.7,131.8c3.8,6.2,2.6,14.9-1.7,24.1c-9.1,19.4-29.7,49.5-31.7,54.4c-2,4.9-1.5,8.1-1.5,8.1
				s-10.7,5.6-16.4,3.8c-5.8-1.8-10.7-17.5-10.7-17.5s13.5-25.2,20.5-36.7c7-11.5,11.2-17.3,11.2-17.3S247,134.9,257.7,131.8z"/>
		</g>
		<g>
			<path class="st15" d="M160.2,115c-3.3,3.9-8.9,13.7-5.4,23.3c4.3,11.5,15.2,14.3,26.7,13.7c11.5-0.6,46-1.2,46-1.2
				s21.5-9,30.2-19c-10.3-13.6-37.9-14.2-52.4-13.6c-11,0.5-19.1,1.9-19.1,1.9s-6.3-3.9-11.6-5.1C166.2,113.1,160.2,115,160.2,115z"
				/>
		</g>
		<g>
			<g>
				<path d="M244.5,244.8c0,2.7-0.9,4.2-2.5,4c-1.6-0.2-1-4.6-1-4.6L244.5,244.8z M233.5,242.1c-0.1,1.1-1.6,4.6,0.7,5.2
					s2.9-4.3,2.9-4.3L233.5,242.1z M227.2,238.9c-0.5,1-2.3,4.7-0.1,5.7c2.2,1,3.7-4.1,3.7-4.1L227.2,238.9z M220.1,235.5
					c-1.1,2.7-0.8,4,0.8,4.7c1.6,0.7,3.4-2.9,3.4-2.9L220.1,235.5z"/>
			</g>
			<g>
				<path class="st2" d="M186.4,222c-2.4-1.4-1.3-5.5-0.2-7.6c2.8-5.8,9.5-9.7,9.5-9.7s3.3,0.9,6.4,5.9c2.8,4.6,5.1,9.1,7.7,8.1
					c2.6-1.1,4.5-1.7,8-4.7c3.4-3,6.3-3.4,6.3-3.4s7.2,9.4,10.5,14.9c3.4,5.4,4.1,6.4,8.1,10.7c2.3,2.5,4.6,4.7,4,6.9
					c-0.8,3.1-6.2,2.4-12.6-0.2c-6.4-2.5-18.6-10.1-24-12C204.8,229,188.8,223.4,186.4,222z"/>
			</g>
			<g>
				<path class="st11" d="M186.4,222c2.4,1.3,18.4,7,23.8,8.9c5.4,1.9,17.6,9.5,24,12c6.4,2.5,11.8,3.3,12.6,0.2
					c0.1-0.4,0.1-0.9,0-1.4c-4.2,1.9-13.2-1.3-17.8-4.3c-4.6-3-8.8-5.4-12.2-7.5c-3.4-2.1-10.7-3.9-14.7-4.9
					c-3.6-0.9-14.6-6.3-16.7-8C184.5,219.3,185,221.2,186.4,222z"/>
			</g>
			<g>
				<path class="st12" d="M217.6,222.4c0,0-0.1,0-0.1,0c-0.1-0.1-0.2-0.2-0.1-0.3c1.4-3,6.3-7.6,8.7-8.7c0.1-0.1,0.3,0,0.3,0.1
					c0.1,0.1,0,0.3-0.1,0.3c-2.4,1.1-7.2,5.7-8.5,8.5C217.7,222.3,217.6,222.4,217.6,222.4z"/>
			</g>
			<g>
				<path class="st12" d="M223.8,225.6c0,0-0.1,0-0.1,0c-0.1-0.1-0.2-0.2-0.1-0.3c1.3-2.7,5.1-6.2,6.2-6.7c0.1-0.1,0.3,0,0.3,0.1
					c0.1,0.1,0,0.3-0.1,0.3c-1,0.5-4.7,3.9-6,6.5C223.9,225.6,223.8,225.6,223.8,225.6z"/>
			</g>
			<g>
				<path class="st12" d="M229.9,229.3c0,0-0.1,0-0.1,0c-0.1-0.1-0.1-0.2-0.1-0.3c1-1.5,3.1-4,4.1-4.4c0.1,0,0.3,0,0.3,0.1
					c0,0.1,0,0.3-0.1,0.3c-0.9,0.3-2.9,2.6-3.9,4.3C230,229.2,230,229.3,229.9,229.3z"/>
			</g>
			<g>
				<path d="M243.4,243.8c-1.9,0-4.2-0.5-6-1c-4.3-1.2-8.1-3.1-13.1-6.5c-5.3-3.5-9.4-6-17.6-8.2c-9-2.5-20.1-7.7-21.7-9.5
					c-0.1-0.1-0.1-0.2,0-0.3s0.2-0.1,0.3,0c1.4,1.5,12.2,6.8,21.4,9.3c8.3,2.3,12.4,4.8,17.8,8.3c5,3.3,8.8,5.2,13,6.4
					c4.2,1.2,7.4,1.3,8.9,0.3c0.1-0.1,0.3,0,0.3,0.1c0.1,0.1,0,0.3-0.1,0.3C245.9,243.6,244.7,243.8,243.4,243.8z"/>
			</g>
		</g>
		<g>
			<g>
				<path class="st0" d="M199.9,45.7c0.1-0.2,0.2-0.4,0.2-0.6c0.1-1-0.5-2.4-2.3-2.7c-0.8-0.2-1.5-0.1-2,0c-0.8,0.2-1.6,0.1-2.3-0.3
					c-0.8-0.5-2.1-0.9-3.7-0.5c-3.1,0.8-2.8,3.1-3.8,3.5c-0.5,0.1-1.3-0.6-2.7-0.8c-1.1-0.2-2.9-0.2-4.4,1.2
					c-0.9,0.8-0.9,1.8-0.8,2.5c0.1,0.4-0.1,0.9-0.4,1.2c-0.6,0.6-1.4,1.7-0.7,3c0.7,1.3,2,1.1,2.9,0.8c0.5-0.2,1,0,1.4,0.3
					c0.4,0.4,1,0.7,2.1,0.6c0.7,0,1.2-0.2,1.5-0.4c0.6-0.3,1.3-0.2,1.7,0.2c0.4,0.4,1.1,0.9,2.2,1.1c2.2,0.5,4.3-0.4,5.1-0.8
					c0.2-0.1,0.4-0.2,0.5-0.4L199.9,45.7z"/>
			</g>
			<g>
				<path class="st10" d="M206.3,80.2c-0.2,1.1-0.7,2.7-1.6,4.6c-0.9-0.1-2.4-0.4-5.1-0.9c-4.8-0.9-6.6-5.4-6.8-9.4
					c-0.2-4.1-1.5-8.2-3.7-10.8c0.7,0.1,3.4-7.2,3.4-7.2l-0.5-1c0,0-1.1,0.7-2.8-0.1c-2.2-1.1-2.3-4.4-0.1-5.2
					c2.2-0.8,3.8,1.3,3.8,1.3s0.1-2,1.3-3.2c1-1,1.6-2.8,1.6-2.8s0.9-0.2,2.3-0.4c1.4-0.1,2.1,0.2,2.1,0.2s2.1,1.3,2.7,5.4
					c0.7,4.4-1.4,6.2-1.4,6.2s0.1,10.5,1.4,13.4C204.2,73.4,206.8,76.6,206.3,80.2z"/>
			</g>
			<g>
				<path d="M195.4,48.4c-0.2,0-0.3-0.1-0.4-0.2c-0.1-0.2-0.1-0.5,0.1-0.6c0.8-0.5,2.3-0.9,2.4-0.9c0.3-0.1,0.5,0.1,0.6,0.3
					c0.1,0.3-0.1,0.5-0.3,0.6c-0.4,0.1-1.6,0.4-2.1,0.8C195.5,48.4,195.5,48.4,195.4,48.4z"/>
			</g>
			<g>
				<path d="M199.4,47.9c-0.2,0-0.4-0.1-0.4-0.3c-0.1-0.2,0.1-0.5,0.3-0.6c0.7-0.2,1.8-0.5,1.9-0.6c0.2-0.1,0.5,0.1,0.6,0.3
					c0.1,0.2-0.1,0.5-0.3,0.6c0,0-1.2,0.3-1.8,0.5C199.5,47.9,199.4,47.9,199.4,47.9z"/>
			</g>
			<g>
				<g>
					<g>
						<g id="XMLID_00000134935735822330445990000011825511738246096309_">
							<path d="M197.3,49.3c0.1,0.3,0,0.5-0.2,0.6c-0.2,0.1-0.4,0-0.5-0.3c-0.1-0.3,0-0.5,0.2-0.6C197,48.8,197.2,49,197.3,49.3z"/>
						</g>
					</g>
				</g>
			</g>
			<g>
				<g>
					<g>
						<g id="XMLID_00000152962462157097443440000003561732809058223542_">
							<path d="M201.5,48.6c0.1,0.3,0,0.5-0.2,0.6c-0.2,0.1-0.4,0-0.5-0.3c-0.1-0.3,0-0.5,0.2-0.6C201.2,48.2,201.4,48.3,201.5,48.6
								z"/>
						</g>
					</g>
				</g>
			</g>
			<g>
				<g>
					<g class="st16">
						<g>
							<g id="XMLID_00000171709817149623057570000017724977514057507485_">
								<path class="st17" d="M197.6,51.6c0.6,1.1,0.4,1.9-0.4,2.3c-0.8,0.4-1.5,0.1-2.1-1c-0.6-1.1-0.4-1.9,0.4-2.3
									C196.3,50.2,197,50.5,197.6,51.6z"/>
							</g>
						</g>
					</g>
				</g>
			</g>
			<g>
				<path class="st14" d="M199.7,51.4c-0.1,0-0.2-0.1-0.2-0.2c0-0.1,0-0.3,0.2-0.3c0,0,0.3-0.1,0.8-0.4c0.5-0.3,0.8-0.6,0.7-0.8
					c-0.1-0.2-1-0.4-1.4-0.5c-0.2-0.1-0.4-0.1-0.5-0.2c-0.1,0-0.2-0.2-0.1-0.3c0-0.1,0.2-0.2,0.3-0.1c0.1,0,0.3,0.1,0.5,0.1
					c1,0.3,1.6,0.5,1.7,0.9c0.1,0.5-0.3,1-1,1.3C200.2,51.3,199.8,51.4,199.7,51.4C199.8,51.4,199.7,51.4,199.7,51.4z"/>
			</g>
			<g>
				<path class="st14" d="M200,52.4c-0.1,0-0.2-0.1-0.2-0.2c0-0.1,0-0.3,0.1-0.3c0.4-0.1,0.7-0.2,0.7-0.2c0.1,0,0.3,0,0.3,0.2
					c0,0.1,0,0.3-0.2,0.3C200.7,52.2,200.4,52.3,200,52.4C200,52.4,200,52.4,200,52.4z"/>
			</g>
			<g>
				<path class="st14" d="M191.1,53.7c-0.1,0-0.1,0-0.2-0.1c0,0-1.1-1.1-1.8-1.4c-0.1-0.1-0.2-0.2-0.1-0.3c0.1-0.1,0.2-0.2,0.3-0.1
					c0.8,0.3,1.9,1.4,1.9,1.4c0.1,0.1,0.1,0.2,0,0.3C191.2,53.6,191.2,53.7,191.1,53.7z"/>
			</g>
			<g>
				<path class="st14" d="M191.9,55.8c-0.1,0-0.2,0-0.2-0.1c-0.1-0.1,0-0.3,0.1-0.3c0.4-0.2,1-0.7,1-0.7c0.1-0.1,0.2-0.1,0.3,0
					c0.1,0.1,0.1,0.2,0,0.3c0,0-0.6,0.6-1.1,0.8C192,55.8,191.9,55.8,191.9,55.8z"/>
			</g>
			<g>
				<path class="st14" d="M200,58.1c-0.1,0-0.2-0.1-0.2-0.2c0-0.1,0-0.3,0.1-0.3c0,0,0.8-0.3,1.4-0.8c0.1-0.1,0.2-0.1,0.3,0
					c0.1,0.1,0.1,0.2,0,0.3C201,57.8,200.1,58.1,200,58.1C200.1,58.1,200,58.1,200,58.1z"/>
			</g>
		</g>
		<g>
			<g>
				<path class="st10" d="M186.3,62.5c0.9,1.8,3.1,6.8,3,11.5c-0.2,4.7-2.7,11.8-8.6,13.4c-4.9,1.3-9.9,0.2-11.6-0.2
					c0.1-0.9,0.2-1.4,0.2-1.4l-27,5.7l-1.2,23.4c1.9-0.2,6.4,1.3,6.1,6.9c-0.3,5.6-5.1,8.3-5.1,8.3c-1.5,4.1-3.8,6.9-8.4,7.3
					c-4.6,0.4-5.4-1.7-5.4-1.7s-1.6,0.6-3.5,0.1c-1.9-0.5-2.5-2.9-2.5-2.9s-1.4,0.2-3.6-1.4c-2.2-1.6-2.1-5.6-1.6-8.2
					c0.5-2.6,0.1-5.5-0.2-9.3c-0.3-3.8-2.5-27.9,9.1-39.7c11.6-11.8,34.8-15.3,46.6-14.5C179.6,60.3,183.9,61.5,186.3,62.5z"/>
			</g>
			<g>
				<path class="st14" d="M140.1,130.7c-1.7,0-3.1-0.7-3.2-0.8c-0.1-0.1-0.2-0.2-0.1-0.3c0.1-0.1,0.2-0.2,0.3-0.1
					c0,0,2.6,1.4,4.9,0.3c0.1-0.1,0.3,0,0.3,0.1c0.1,0.1,0,0.3-0.1,0.3C141.5,130.6,140.7,130.7,140.1,130.7z"/>
			</g>
			<g>
				<path class="st14" d="M135.6,133.8c0,0-0.1,0-0.1,0c-0.1-0.1-0.1-0.2-0.1-0.3c0.5-0.9,1.3-3.5,1.9-5.8c0.6-2,1.1-3.8,1.5-4.6
					c0.1-0.1,0.2-0.2,0.3-0.1c0.1,0.1,0.2,0.2,0.1,0.3c-0.4,0.7-0.9,2.5-1.4,4.5c-0.7,2.4-1.4,5-2,5.9
					C135.8,133.8,135.7,133.8,135.6,133.8z"/>
			</g>
			<g>
				<path class="st14" d="M128.3,135.9c-0.1,0-0.2,0-0.2-0.1c-1-1.8-0.8-5,0.5-8c0.1-0.1,0.2-0.2,0.3-0.1c0.1,0.1,0.2,0.2,0.1,0.3
					c-1.2,2.8-1.5,5.9-0.6,7.6c0.1,0.1,0,0.3-0.1,0.3C128.3,135.9,128.3,135.9,128.3,135.9z"/>
			</g>
			<g>
				<path class="st14" d="M122.3,133.1c-0.1,0-0.2-0.1-0.2-0.1c-0.9-2.4-0.2-6.8-0.2-7c0-0.1,0.1-0.2,0.3-0.2c0.1,0,0.2,0.1,0.2,0.3
					c0,0-0.7,4.4,0.2,6.7C122.5,132.9,122.5,133,122.3,133.1C122.3,133.1,122.3,133.1,122.3,133.1z"/>
			</g>
			<g>
				<path class="st14" d="M141.1,115C141.1,115,141.1,115,141.1,115c-1.7-0.3-3-0.3-3.1-0.3c-0.1,0-0.2-0.1-0.2-0.2
					c0-0.1,0.1-0.2,0.2-0.2c0.1,0,1.4,0,3.1,0.3c0.1,0,0.2,0.1,0.2,0.3C141.3,115,141.2,115,141.1,115z"/>
			</g>
			<g>
				<path class="st14" d="M169.2,86c-0.1,0-0.2-0.1-0.2-0.2c0-0.1,0.1-0.2,0.2-0.3c3-0.6,5.5-1,5.5-1c0.1,0,0.2,0.1,0.3,0.2
					c0,0.1-0.1,0.2-0.2,0.3C174.8,85,172.3,85.4,169.2,86C169.3,86,169.3,86,169.2,86z"/>
			</g>
		</g>
		<g>
			<path class="st3" d="M203.9,72.3c0.6,3.5,0.3,11-1.7,11.7c-0.9,0.3-1.6,0-2.5-0.1c-4.8-0.9-6.6-5.4-6.8-9.4
				c-0.2-4.1-1.5-8.2-3.7-10.8c-0.3,0-1.1-0.5-2.7-1.2c0.9,1.8,3.1,6.8,3,11.5c-0.2,4.7-2.7,11.8-8.6,13.4
				c-4.9,1.3-9.9,0.2-11.6-0.2c-0.2,1.6-0.7,4.2-1.8,7.4c-1.6,5.1-7.2,20.4-7.2,20.4s7.9,1,12.9,1.9c5.1,0.9,12.7,3.4,12.7,3.4
				s8.1-17.3,11.5-22.1c2.4-3.3,5.6-9,7.5-13.3c0.2-0.3,0.3-0.7,0.4-1c0.3-0.9,0.8-2.3,1.1-4c0.1-0.4,0.1-0.8,0.1-1.3
				C206.1,76.3,204.9,74.3,203.9,72.3z"/>
		</g>
		<g>
			<path d="M193,105.3c-4.1,0-9.8-2.9-10.1-3c-0.1,0-0.1-0.1-0.1-0.1c0-0.1,0-0.1,0-0.2c0,0,2.2-4.2,3.7-7.3c1.5-3.1,3.6-9,3.6-9.1
				c0-0.1,0.1-0.1,0.1-0.1c0.1,0,0.1,0,0.2,0c3.2,1.6,10.6,3.1,12,3.1c0.1,0,0.2,0.1,0.2,0.2s-0.1,0.2-0.2,0.2c-1.4,0-8.7-1.4-12-3
				c-0.4,1.2-2.2,6.2-3.6,8.9c-1.3,2.7-3.2,6.2-3.6,7c1.1,0.5,6.1,2.9,9.6,2.9c0.1,0,0.2,0.1,0.2,0.2S193.1,105.3,193,105.3z"/>
		</g>
		<g>
			<path d="M162.4,127.6c-0.1,0-0.2-0.1-0.2-0.1c0-0.1,0-0.3,0.1-0.3c0.2-0.1,15.9-6.2,23.6-7.1c0.1,0,0.2,0.1,0.3,0.2
				c0,0.1-0.1,0.2-0.2,0.3C178.3,121.4,162.6,127.5,162.4,127.6C162.5,127.6,162.4,127.6,162.4,127.6z"/>
		</g>
	</g>
	<g>
		<path class="st0" d="M296,285.6H11.4c-0.4,0-0.7-0.3-0.7-0.7c0-0.4,0.3-0.7,0.7-0.7H296c0.4,0,0.7,0.3,0.7,0.7
			C296.7,285.3,296.4,285.6,296,285.6z"/>
	</g>
	<g>
		<path class="st3" d="M29.9,105.4c-6.4,0-10.6-0.4-11.6-4.9c-0.4-1.6,0.2-3.4,1.6-4.9c1.8-2,4.8-3,7.4-2.6c2.3,0.4,4,1.3,5,2
			c0.5-1.2,1.7-3.3,3.4-5.1c2.9-3,9.4-5.1,13.7-1.1c2.3,2.1,2.5,4.9,2.2,6.8c0.9-0.6,2-1.3,3.4-1.7c2-0.6,4.4,0,6,1.3
			c1.2,1.1,1.8,2.5,1.6,4.2c-0.5,3.9-5.1,6.2-12.3,6.2H34.5c-0.9,0-1.7,0-2.5,0C31.3,105.4,30.5,105.4,29.9,105.4z M26,94.2
			c-1.9,0-3.9,0.8-5.2,2.3c-1.1,1.2-1.5,2.5-1.2,3.7c0.9,3.7,4.4,3.9,12.4,3.8c0.8,0,1.7,0,2.5,0h15.6c9.6,0,10.8-3.8,10.9-5
			c0.1-1.2-0.2-2.2-1.1-2.9c-1.2-1-3.2-1.4-4.7-1c-2.5,0.7-4.5,2.8-4.5,2.9c-0.2,0.3-0.6,0.3-0.9,0.1c-0.3-0.2-0.4-0.6-0.2-0.9
			c0.1-0.2,2-4.5-1.2-7.5c-3.7-3.4-9.3-1.5-11.8,1c-2.3,2.4-3.5,5.5-3.5,5.5c-0.1,0.2-0.3,0.4-0.5,0.4c-0.2,0.1-0.5,0-0.6-0.2
			c0,0-1.9-1.7-5-2.2C26.7,94.3,26.3,94.2,26,94.2z"/>
	</g>
	<g>
		<path class="st3" d="M254.7,106.9c-6.8,0-13.6,0-13.7,0c-0.4,0-0.7-0.3-0.7-0.7c0-0.3-0.1-6.9,3.6-10.8c1.9-1.9,4.3-2.5,6.6-1.5
			c1.7,0.7,3,2.1,3.6,3.6c0.4-0.6,0.9-1.3,1.5-1.9c2.2-2.3,4.9-3.3,7.7-2.8c4.8,0.8,6.9,4.6,7.6,6.6c1.5-1.8,4.9-4.7,9.1-3.1
			c3.2,1.2,5.4,4.3,4.9,7.1c-0.4,2.1-2.2,3.4-5,3.5c-5.8,0.1-11.5,0.1-14.9,0.1l-1.1,0l0,0C261.4,106.9,258.1,106.9,254.7,106.9z
			 M263.9,106.2L263.9,106.2L263.9,106.2z M241.6,105.5c3.1,0,15.8,0,22.3,0l1.1,0c3.4,0,9.1,0,14.9-0.1c2.1,0,3.4-0.9,3.6-2.3
			c0.3-1.8-1.1-4.4-4-5.5c-2-0.8-3.9-0.4-5.9,1.1c-1.5,1.2-2.4,2.6-2.4,2.6c-0.2,0.2-0.4,0.4-0.7,0.3c-0.3-0.1-0.5-0.3-0.6-0.6
			c0-0.2-1.2-5.9-6.9-6.9c-2.3-0.4-4.5,0.4-6.4,2.4c-1.5,1.5-2.2,3.2-2.2,3.2c-0.1,0.3-0.5,0.5-0.8,0.4c-0.3-0.1-0.6-0.4-0.5-0.7
			c0.1-1.5-1.4-3.4-3.2-4.2c-1-0.4-3.1-0.9-5.1,1.2C242.2,99.1,241.7,103.7,241.6,105.5z"/>
	</g>
	<g>
		<path class="st3" d="M93.1,43c-11.3,0-11.9-0.9-12.3-1.3c-0.6-0.8-0.6-2.1,0.2-3.8c1.4-3.2,5.6-8.3,10.4-8.9
			c3.9-0.5,6.4,1.8,7.5,3.1c1.4-1.7,5-5.5,9.5-4.7c1.7,0.3,3,1.1,3.8,2.3c0.6,1,0.8,2.2,0.8,3.1c1.3-0.9,3.4-1.8,6-1.2
			c1.4,0.3,2.3,1.3,2.5,2.8c0.4,2.6-1.7,6.5-4.2,7.9c-0.1,0.1-0.2,0.1-0.3,0.1c-0.1,0-8.6,0.5-17.2,0.7C97.2,43,95,43,93.1,43z
			 M81.9,40.8c1.5,1.1,18.9,0.9,34.9,0.1c1.9-1.1,3.6-4.4,3.4-6.4c-0.1-0.9-0.6-1.4-1.5-1.6c-3.6-0.9-6,1.9-6,1.9
			c-0.2,0.3-0.6,0.3-0.9,0.2c-0.3-0.2-0.4-0.5-0.4-0.8c0,0,0.6-2.2-0.5-3.9c-0.6-0.9-1.5-1.4-2.8-1.6c-4.8-0.8-8.7,4.8-8.7,4.9
			c-0.1,0.2-0.4,0.3-0.6,0.3c-0.2,0-0.5-0.1-0.6-0.3c-0.1-0.2-2.4-3.8-6.7-3.3c-4.1,0.5-8,5-9.3,8.1C81.7,39.7,81.7,40.5,81.9,40.8z
			 M117,41.6L117,41.6L117,41.6z"/>
	</g>
	<g>
		<path class="st3" d="M220.3,26c-0.8,0-1.7,0-2.7,0c-1,0-2,0-3,0c-6.4,0-10.5-0.2-11.7-1.1c-0.8-0.7-1-2.1-0.4-3.5
			c0.7-1.7,2.5-3.7,5.4-3.6c2.1,0.1,3.3,1.1,4,2.2c1.1-1.1,3.3-2.9,5.6-2.3c1.7,0.5,2.5,1.7,2.8,2.8c1.6-1.2,3.8-2.1,6.1-1.7
			c1.6,0.3,3,1.5,3.4,2.9c0.3,1.2-0.2,2.3-1.3,3.1C226.8,25.8,224,26,220.3,26z M207.8,19.1c-2.1,0-3.5,1.5-3.9,2.7
			c-0.3,0.8-0.3,1.6,0,1.9c0.6,0.5,4.2,0.8,10.7,0.8c1,0,2.1,0,3.1,0c4.5,0.1,8.3,0.1,9.9-1.1c0.6-0.5,0.9-1,0.7-1.7
			c-0.2-0.9-1.1-1.6-2.2-1.8c-2.3-0.4-4.7,0.9-5.9,2.3c-0.2,0.2-0.5,0.3-0.8,0.2c-0.3-0.1-0.4-0.4-0.4-0.7c0-0.2,0.2-2.3-1.9-2.8
			c-1.8-0.5-4.1,1.7-4.8,2.6c-0.2,0.2-0.4,0.3-0.7,0.2c-0.3-0.1-0.5-0.2-0.5-0.5c0-0.1-0.7-2.1-3.2-2.2
			C207.9,19.1,207.8,19.1,207.8,19.1z"/>
	</g>
	<g>
		<path class="st3" d="M103.1,85.9H89.8c-0.4,0-0.7-0.3-0.7-0.7s0.3-0.7,0.7-0.7h13.3c0.4,0,0.7,0.3,0.7,0.7S103.5,85.9,103.1,85.9z
			"/>
	</g>
	<g>
		<path class="st3" d="M106.4,97.3h-6.8c-0.4,0-0.7-0.3-0.7-0.7s0.3-0.7,0.7-0.7h6.8c0.4,0,0.7,0.3,0.7,0.7S106.8,97.3,106.4,97.3z"
			/>
	</g>
	<g>
		<path class="st3" d="M104.1,109.1h-11c-0.4,0-0.7-0.3-0.7-0.7s0.3-0.7,0.7-0.7h11c0.4,0,0.7,0.3,0.7,0.7S104.5,109.1,104.1,109.1z
			"/>
	</g>
	<g>
		<path class="st3" d="M93.3,125h-4.8c-0.4,0-0.7-0.3-0.7-0.7s0.3-0.7,0.7-0.7h4.8c0.4,0,0.7,0.3,0.7,0.7S93.7,125,93.3,125z"/>
	</g>
	<g>
		<path class="st3" d="M65.4,125.5h-4.6c-0.4,0-0.7-0.3-0.7-0.7s0.3-0.7,0.7-0.7h4.6c0.4,0,0.7,0.3,0.7,0.7S65.7,125.5,65.4,125.5z"
			/>
	</g>
	<g>
		<path class="st3" d="M73,67.2h-5.4c-0.4,0-0.7-0.3-0.7-0.7s0.3-0.7,0.7-0.7H73c0.4,0,0.7,0.3,0.7,0.7S73.4,67.2,73,67.2z"/>
	</g>
	<g>
		<path class="st3" d="M149.8,51.6h-7.9c-0.4,0-0.7-0.3-0.7-0.7s0.3-0.7,0.7-0.7h7.9c0.4,0,0.7,0.3,0.7,0.7S150.1,51.6,149.8,51.6z"
			/>
	</g>
</g>
</svg>
